<?xml version="1.0" encoding="UTF-8"?><svg id="Layer_1" xmlns="http://www.w3.org/2000/svg" viewBox="0 0 941.715 773.643"><defs><style>.cls-1{fill:#f1f0f0;}</style></defs><path class="cls-1" d="M376.275,448.078c-9.852,0-19.002-2.815-27.196-8.366-18.622-12.414-25.902-32.894-18.515-52.152,3.485-9.375,10.283-17.998,19.122-24.231,9.708-6.847,21.275-10.465,33.45-10.465,2.819,0,5.699,.196,8.558,.584,18.114,2.352,30.365,5.842,41.687,11.934l5.664-14.869c8.414-23.623,19.465-54.504,30.154-84.37,10.832-30.266,21.081-58.903,26.58-74.398-3.088-.479-6.264-.721-9.464-.721-21.142,0-42.638,10.39-57.504,27.794-26.115,30.467-26.259,73.357-.327,95.616,2.474,2.094,4.06,5.186,4.345,8.486,.442,3.444-.58,6.852-2.889,9.618-2.291,2.779-5.743,4.387-9.45,4.387-2.935,0-5.792-1.023-8.045-2.88-18.015-15.076-28.236-37.151-28.81-62.183-.559-24.271,8.196-48.585,24.652-68.461,19.722-23.525,48.589-37.556,77.239-37.556,5.798,0,11.55,.573,17.095,1.702,5.106,.991,10.129,2.456,14.881,4.345,.026,.01,.052,.021,.077,.031,.675,.281,1.331,.636,1.992,1.079,6.507,2.936,12.567,6.745,18.02,11.33,18.115,14.949,28.429,37.03,29.005,62.148,.562,24.38-8.285,48.705-24.91,68.492-12.574,15.215-29.178,26.65-47.069,32.478,7.761,9.923,11.892,22.749,12.293,38.19,.341,10.617,3.127,18.393,8.055,22.454,.032,.027,.064,.053,.096,.081,4.539,3.931,10.572,4.518,13.764,4.517,1.543,0,2.532-.136,2.542-.138,.016-.002,.058-.008,.074-.01,.538-.07,1.086-.106,1.628-.106,6.218,0,11.514,4.545,12.38,10.597,1.18,6.636-3.227,12.824-10.092,14.127-.205,.039-.412,.065-.62,.079l-.147,.016c-.71,.077-2.374,.258-4.798,.29-.236,.003-.478,.005-.726,.005-8.17,0-19.991-1.776-29.913-10.233-10.782-8.965-16.523-22.767-17.014-40.985-.508-15.78-6.45-26.6-17.212-31.385l-9.003,25.197c-.022,.06-.044,.119-.068,.179-.076,.319,.177,1.149,.455,1.442,4.013,3.258,8.173,7.111,12.574,11.188,1.123,1.04,2.269,2.102,3.445,3.183,2.653,2.464,4.202,5.875,4.266,9.376,.062,3.346-1.182,6.497-3.507,8.893-2.346,2.648-5.765,4.162-9.412,4.162-3.314,0-6.452-1.212-8.837-3.413-3.715-3.497-6.85-6.432-9.814-9.052-11.456,18.15-32.169,33.874-52.089,39.425-5.353,1.692-10.958,2.55-16.661,2.55Zm-21.61-51.469c-3.106,8.441-.146,15.745,8.8,21.709,3.777,2.558,8.118,3.844,12.935,3.844,2.967,0,6.132-.49,9.406-1.457,13.95-3.96,29.175-15.519,37.251-28.218l1.033-2.712c-9.83-5.758-19.622-8.674-35.829-10.7l-.577-.073c-1.569-.198-2.808-.355-4.162-.355-14.308,0-25.337,9.028-28.856,17.961Zm120.318-69.805c17.918-2.778,34.991-12.68,47.711-27.882,12.649-14.965,19.353-33.344,18.896-51.773-.229-17.692-7.227-33.198-19.708-43.738l-2.22-1.646-44.679,125.039Z"/><g><path class="cls-1" d="M40.96,541.896c0-2.321-2.048-4.233-4.642-4.233h-9.694c-2.458,0-4.506,1.912-4.506,4.233v44.92c0,2.321,2.048,4.232,4.506,4.232h9.694c2.594,0,4.642-1.639,4.642-3.687s-1.775-3.823-3.823-3.823-3.959-1.774-4.369-4.096l-2.321-12.834c-.41-2.321,1.365-4.097,3.823-4.097l24.303,.41c2.458,0,4.506,1.911,4.506,4.232v30.993c0,7.373-6.69,13.518-14.746,13.518H14.746c-7.782,0-14.746-6.145-14.746-13.518v-67.312c0-7.373,6.963-13.79,14.746-13.79H48.333c8.329,0,14.746,6.417,14.746,13.79v16.657c0,2.321-2.048,4.232-4.506,4.232h-13.107c-2.594,0-4.506-1.911-4.506-4.232v-5.598Z"/><path class="cls-1" d="M97.898,578.897c-2.458,0-4.506,1.911-4.506,4.232v24.304c0,2.32-1.912,4.232-4.506,4.232h-13.107c-2.458,0-4.505-1.912-4.505-4.232v-86.154c0-2.321,2.048-4.232,4.505-4.232h41.097c8.329,0,14.746,6.417,14.746,13.79v25.396c0,3.96-1.502,7.1-3.823,9.147-1.775,1.639-1.775,2.458,.273,3.823,4.096,2.595,6.28,7.373,6.28,11.879v26.352c0,2.32-2.048,4.232-4.505,4.232h-13.107c-2.594,0-4.506-1.912-4.506-4.232v-24.304c0-2.321-2.048-4.232-4.642-4.232h-9.694Zm7.1-20.617c2.458,0,4.506-1.774,4.506-4.096v-12.288c0-2.321-2.048-4.233-4.506-4.233h-7.1c-2.458,0-4.506,1.912-4.506,4.233v12.288c0,2.321,2.048,4.096,4.506,4.096h7.1Z"/><path class="cls-1" d="M171.492,589.409c-2.458,0-4.779,1.912-5.325,4.233l-2.594,13.926c-.41,2.321-2.731,4.097-5.188,4.097h-14.746c-2.458,0-4.096-1.775-3.687-4.097l16.657-86.29c.41-2.321,2.867-4.232,5.325-4.232h30.448c2.458,0,4.778,1.911,5.188,4.232l16.248,86.29c.41,2.321-1.229,4.097-3.687,4.097h-13.927c-2.458,0-4.915-1.775-5.325-4.097l-2.731-13.926c-.41-2.321-2.73-4.233-5.188-4.233h-11.469Zm8.875-20.616c2.458,0,4.096-1.775,3.686-4.097l-6.007-27.307c-.546-2.185-1.229-2.185-1.775,0l-5.461,27.307c-.546,2.321,1.229,4.097,3.687,4.097h5.871Z"/><path class="cls-1" d="M266.251,517.046c8.329,0,14.746,6.417,14.746,13.79v34.543c0,7.373-6.69,13.518-14.746,13.518h-21.709c-2.458,0-4.506,1.911-4.506,4.232v24.304c0,2.32-1.912,4.232-4.506,4.232h-13.107c-2.458,0-4.505-1.912-4.505-4.232v-86.154c0-2.321,2.048-4.232,4.505-4.232h43.828Zm-21.709,20.616c-2.458,0-4.506,1.912-4.506,4.233v12.288c0,2.321,2.048,4.096,4.506,4.096h9.694c2.594,0,4.642-1.774,4.642-4.096v-12.288c0-2.321-2.048-4.233-4.642-4.233h-9.694Z"/><path class="cls-1" d="M306.804,517.046c2.594,0,4.506,1.911,4.506,4.232v30.857c0,2.32,2.048,4.096,4.506,4.096h9.694c2.594,0,4.506-1.775,4.506-4.096v-30.857c0-2.321,2.048-4.232,4.642-4.232h13.107c2.458,0,4.506,1.911,4.506,4.232v86.154c0,2.32-2.048,4.232-4.506,4.232h-13.107c-2.594,0-4.642-1.912-4.642-4.232v-26.352c0-2.321-1.912-4.232-4.506-4.232h-9.694c-2.458,0-4.506,1.911-4.506,4.232v26.352c0,2.32-1.912,4.232-4.506,4.232h-13.107c-2.458,0-4.505-1.912-4.505-4.232v-86.154c0-2.321,2.048-4.232,4.505-4.232h13.107Z"/><path class="cls-1" d="M382.174,517.046c2.594,0,4.506,1.911,4.506,4.232v86.154c0,2.32-1.912,4.232-4.506,4.232h-13.107c-2.458,0-4.506-1.912-4.506-4.232v-86.154c0-2.321,2.048-4.232,4.506-4.232h13.107Z"/><path class="cls-1" d="M439.931,541.896c0-2.321-2.048-4.233-4.642-4.233h-9.694c-2.458,0-4.506,1.912-4.506,4.233v44.92c0,2.321,2.048,4.232,4.506,4.232h9.694c2.594,0,4.642-1.911,4.642-4.232v-10.104c0-2.321,1.912-4.232,4.506-4.232h13.107c2.458,0,4.505,1.911,4.505,4.232v21.436c0,7.373-6.69,13.518-14.746,13.518h-33.588c-7.782,0-14.746-6.145-14.746-13.518v-67.312c0-7.373,6.963-13.79,14.746-13.79h33.588c8.329,0,14.746,6.417,14.746,13.79v21.026c0,2.321-2.048,4.232-4.505,4.232h-13.107c-2.594,0-4.506-1.911-4.506-4.232v-9.967Z"/><path class="cls-1" d="M492.362,586.816c0,2.321,2.048,4.232,4.506,4.232h9.694c2.594,0,4.642-1.911,4.642-4.232v-7.782c0-2.321-2.048-4.233-4.642-4.233h-21.573c-8.602,0-14.746-6.554-14.746-13.517v-30.447c0-8.056,5.871-13.79,14.746-13.79h33.588c8.329,0,14.746,5.734,14.746,13.517v12.016c0,2.32-2.048,4.232-4.505,4.232h-13.107c-2.594,0-4.506-1.912-4.506-4.232v-.683c0-2.321-2.048-4.233-4.642-4.233h-9.694c-2.458,0-4.506,1.912-4.506,4.233v8.056c0,2.32,2.048,4.232,4.506,4.232h21.709c8.329,0,14.746,6.417,14.746,13.79v30.174c0,7.373-6.69,13.518-14.746,13.518h-33.588c-7.782,0-14.746-6.145-14.746-13.518v-11.469c0-2.321,2.048-4.232,4.505-4.232h13.107c2.594,0,4.506,1.911,4.506,4.232v.137Z"/><path class="cls-1" d="M629.857,608.524c0,1.775-1.502,3.141-3.414,3.141h-15.428c-1.775,0-3.277-1.365-3.277-3.141v-23.484c0-1.774-1.639-3.14-3.414-3.14h-25.259c-1.911,0-3.413-1.365-3.413-3.141v-14.336c0-1.775,1.502-3.141,3.413-3.141h25.259c1.775,0,3.414-1.365,3.414-3.141v-26.078c0-1.639,1.501-3.141,3.277-3.141h15.428c1.912,0,3.414,1.502,3.414,3.141v26.078c0,1.775,1.502,3.141,3.413,3.141h25.259c1.775,0,3.277,1.365,3.277,3.141v14.336c0,1.775-1.502,3.141-3.277,3.141h-25.259c-1.911,0-3.413,1.365-3.413,3.14v23.484Z"/><path class="cls-1" d="M720.793,576.984c.41,2.321,1.229,2.321,1.775,0l12.834-55.843c.546-2.185,3.004-4.096,5.461-4.096h13.927c2.458,0,4.916,1.911,5.461,4.096l12.834,55.434c.546,2.321,1.365,2.321,1.775,0l10.65-55.434c.546-2.185,2.867-4.096,5.325-4.096h13.927c2.458,0,4.096,1.911,3.687,4.096l-16.794,86.427c-.546,2.321-2.867,4.097-5.325,4.097h-24.576c-2.458,0-4.915-1.775-5.461-4.097l-7.373-29.082c-.546-2.32-1.502-2.32-2.048,0l-7.509,29.082c-.546,2.321-3.004,4.097-5.598,4.097h-24.44c-2.458,0-4.915-1.775-5.325-4.097l-16.794-86.427c-.546-2.185,1.092-4.096,3.687-4.096h13.79c2.594,0,4.915,1.911,5.325,4.232l10.786,55.706Z"/><path class="cls-1" d="M817.739,611.665c-2.457,0-4.506-1.912-4.506-4.232v-86.154c0-2.321,2.049-4.232,4.506-4.232h46.422c2.458,0,4.506,1.911,4.506,4.232v12.288c0,2.321-2.048,4.096-4.506,4.096h-24.303c-2.458,0-4.506,1.912-4.506,4.233v8.328c0,2.321,2.048,4.232,4.506,4.232h14.473c2.458,0,4.506,1.912,4.506,4.233v12.151c0,2.321-2.048,4.232-4.506,4.232h-14.473c-2.458,0-4.506,1.911-4.506,4.232v7.51c0,2.321,2.048,4.232,4.506,4.232h26.078c2.458,0,4.506,1.911,4.506,4.232v12.152c0,2.32-2.048,4.232-4.506,4.232h-48.197Z"/><path class="cls-1" d="M924.239,517.046c8.328,0,14.745,6.417,14.745,13.79v21.3c0,3.822-1.501,7.1-3.822,9.147-1.775,1.639-1.775,2.458,.272,3.823,4.097,2.594,6.281,7.373,6.281,11.742v21.299c0,7.373-6.69,13.518-14.746,13.518h-43.828c-2.457,0-4.506-1.912-4.506-4.232v-86.154c0-2.321,2.049-4.232,4.506-4.232h41.098Zm-11.879,37.138c2.458,0,4.506-1.912,4.506-4.232v-8.056c0-2.321-2.048-4.233-4.506-4.233h-7.1c-2.458,0-4.506,1.912-4.506,4.233v8.056c0,2.32,2.048,4.232,4.506,4.232h7.1Zm7.236,24.85c0-2.321-2.048-4.233-4.642-4.233h-9.694c-2.458,0-4.506,1.912-4.506,4.233v7.782c0,2.321,2.048,4.232,4.506,4.232h9.694c2.594,0,4.642-1.911,4.642-4.232v-7.782Z"/></g><g><path class="cls-1" d="M277.086,760.288c-9.459-11.685-9.793-28.6-.779-42.955,5.342-8.457,12.798-14.355,20.81-16.804,1.113-.333,1.447-1.335,.89-2.337-2.448-4.229-3.227-9.459-2.226-15.356,2.114-12.241,12.353-23.926,25.706-22.479,6.566,.779,11.907,4.229,14.467,9.57,2.894,5.676,2.337,12.687-1.335,18.918-1.113,1.67-3.338,2.226-5.119,1.225-1.781-1.002-2.337-3.339-1.224-5.119,2.337-3.895,2.782-8.346,1.113-11.685-1.558-3.116-4.674-5.008-8.68-5.453-9.125-1.112-16.024,7.456-17.583,16.247-.557,3.116-1.558,13.354,9.125,15.914,2.003,.445,3.227,2.448,2.782,4.451-.557,2.003-2.56,3.228-4.451,2.782-10.127-2.448-21.033,3.115-27.932,14.021-5.564,8.902-8.902,23.258,.223,34.386,6.565,8.013,17.026,11.907,27.487,10.238,10.238-1.669,18.25-8.68,22.145-19.029,.668-1.892,2.782-2.894,4.785-2.226,1.892,.779,2.894,2.894,2.114,4.785-4.785,13.02-14.912,21.589-27.82,23.703-2.003,.445-4.118,.557-6.121,.557-10.906,0-21.366-4.896-28.377-13.354Z"/><path class="cls-1" d="M346.306,754.279c-5.453-.891-10.572-4.229-13.465-9.014-1.001-1.559-.557-3.673,1.113-4.674,1.558-1.002,3.784-.557,4.785,1.112,2.337,3.896,7.456,6.343,11.685,5.898,3.005-.334,5.119-2.226,6.121-5.342,1.224-3.673-.667-6.899-3.895-11.685-1.001-1.559-2.114-3.116-3.004-4.785l-.334-.668c-.111-.334-.556,.334-1.001,1.447l-4.562,11.573c-.557,1.335-1.892,2.226-3.227,2.226-.445,0-.891-.111-1.335-.223-1.781-.779-2.671-2.782-1.892-4.562l6.677-17.249c2.114-5.453,3.783-12.464,7.79-16.915,1.335-1.446,3.45-1.558,4.896-.223,1.447,1.225,1.558,3.45,.223,4.896-4.229,4.785-4.562,9.793-1.113,16.358,.779,1.336,1.669,2.782,2.67,4.229,3.116,4.675,7.011,10.572,4.785,17.694-.333,.779-.556,1.558-.89,2.226-.556,1.113-.223,1.78,1.001,1.446,4.452-1.112,8.792-3.783,11.24-9.348l6.343-15.356c.667-1.78,2.782-2.671,4.562-1.892,1.78,.667,2.56,2.671,1.892,4.451l-6.343,15.468c-4.896,11.129-15.246,14.355-24.259,14.355-3.895,0-7.567-.667-10.46-1.446Z"/><path class="cls-1" d="M384.476,753.611l-.445-.223c-7.122-2.782-10.684-10.794-7.901-17.916l6.788-17.249,1.558-4.34c.445-1.113-.111-2.003-1.335-2.003h-2.448c-1.892,0-3.45-1.559-3.45-3.45s1.558-3.449,3.45-3.449h5.119c1.113,0,2.448-1.002,2.894-2.114l4.896-12.575c.668-1.78,2.671-2.671,4.452-2.003,1.78,.667,2.67,2.671,2.003,4.451l-3.895,10.127c-.445,1.112-.111,2.114,.668,2.114h1.447c1.892,0,3.45,1.558,3.45,3.449s-1.558,3.45-3.45,3.45h-3.339c-1.224,0-2.56,.89-3.004,2.003l-2.56,6.899-6.788,17.249c-1.447,3.561,.333,7.567,3.895,8.902l.557,.223c3.561,1.446,7.567-.334,9.014-3.896l7.567-19.362c.667-1.781,2.671-2.671,4.451-2.003,1.781,.778,2.671,2.781,2.003,4.562l-7.567,19.362c-2.114,5.453-7.345,8.792-12.909,8.792-1.669,0-3.45-.334-5.119-1.002Z"/><path class="cls-1" d="M424.87,751.386c-.111-1.78,1.113-3.339,2.893-3.672,19.141-3.45,32.829-13.354,42.844-30.937,3.672-6.455,4.006-15.023,.779-20.588-1.558-2.671-4.674-5.897-10.683-5.897-7.567,0-13.688,6.899-13.688,15.468,0,1.893-1.558,3.45-3.561,3.45-1.892,0-3.45-1.558-3.45-3.45,0-12.352,9.236-22.367,20.698-22.367,7.233,0,13.131,3.338,16.692,9.348,4.452,7.679,4.229,18.807-.779,27.486-6.677,11.685-15.023,20.477-25.373,26.374-1.001,.557-.89,1.113,.223,1.113h20.699c2.003,0,3.45,1.446,3.45,3.449,0,1.892-1.447,3.45-3.45,3.45h-43.845c-1.781,0-3.228-1.336-3.45-3.228Z"/><path class="cls-1" d="M505.218,751.942c-15.246-5.453-22.146-25.039-15.468-43.512,6.677-18.584,24.482-29.156,39.616-23.703,15.246,5.453,22.146,25.039,15.468,43.512-5.453,15.245-18.473,25.149-31.381,25.149-2.782,0-5.564-.445-8.235-1.446Zm33.718-25.817c5.453-15.246,.223-31.159-11.685-35.499-2.003-.668-4.117-1.002-6.231-1.002-10.238,0-20.81,8.235-25.373,20.921-5.453,15.246-.223,31.159,11.685,35.388,11.907,4.341,26.04-4.562,31.604-19.808Z"/><path class="cls-1" d="M556.297,754.391c-1.78-.779-2.671-2.782-2.003-4.562l12.463-31.604,7.122-18.918c.445-1.113-.111-1.558-1.224-1.335-2.559,.667-5.341,.778-8.346,0-1.892-.445-3.004-2.337-2.448-4.229,.445-1.78,2.337-2.893,4.229-2.448,7.678,2.004,13.354-6.343,13.465-6.454,1.001-1.446,2.893-1.892,4.451-1.112,1.558,.89,2.226,2.67,1.558,4.34l-12.353,32.605-12.464,31.716c-.556,1.335-1.78,2.226-3.227,2.226-.445,0-.779-.111-1.224-.223Z"/><path class="cls-1" d="M593.244,747.937c-7.011-6.789-8.346-16.248-3.339-25.15,.891-1.669,3.005-2.226,4.674-1.335,1.669,.89,2.226,3.004,1.335,4.674-4.674,8.346-.667,14.133,2.115,16.915,5.453,5.229,15.802,7.678,23.814,2.893,8.68-5.229,9.904-18.139,5.564-26.818-3.672-7.567-11.907-12.353-19.697-11.462-1.113,.11-2.226-.334-3.004-1.225-.668-.779-1.001-1.892-.779-3.005l3.895-17.359c.668-3.228,3.228-3.228,13.02-3.116,5.342,0,11.907,.223,16.136,.334,2.448,.111,4.451,.111,5.007,.111,1.892,0,3.45,1.558,3.45,3.449s-1.558,3.45-3.45,3.45c-.667,0-2.559-.111-5.119-.111-4.562-.111-14.912-.445-20.699-.334-1.224,0-2.448,1.002-2.671,2.114l-1.446,6.677c-.223,1.113,.445,2.114,1.669,2.337,8.346,1.447,16.025,7.011,19.92,15.023,2.782,5.787,3.783,12.909,2.559,19.363-1.335,7.233-5.23,13.02-10.794,16.47-4.006,2.337-8.568,3.561-13.242,3.561-6.789,0-13.799-2.56-18.918-7.455Z"/></g><g><path class="cls-1" d="M73.604,461.972c2.375,.1,4.419-1.915,4.524-4.43l.415-9.919c.111-2.654-1.763-4.692-4.138-4.792l-67.061-2.805c-2.375-.1-4.243-2.277-4.132-4.932l.561-13.412c.105-2.515,2.149-4.528,4.524-4.429l78.656,3.29c7.544,.315,13.545,7.424,13.2,15.667l-1.438,34.368c-.333,7.964-6.918,14.826-14.462,14.511l-31.295-1.31c-2.375-.1-4.244-2.276-4.138-4.791l.561-13.412c.111-2.655,2.149-4.529,4.524-4.43l19.699,.824Z"/><path class="cls-1" d="M22.324,388.457c-7.319-1.856-11.935-10.385-9.976-18.109l8.457-33.341c2.097-8.267,10.083-13.021,17.401-11.164l66.816,16.948c7.318,1.856,11.733,10.044,9.705,18.04l-8.457,33.34c-1.96,7.726-9.812,13.091-17.13,11.234l-66.815-16.948Zm13.48-24.71c-.619,2.439,.763,4.954,3.067,5.538l44.589,11.311c2.304,.585,4.717-.967,5.336-3.406l2.441-9.623c.653-2.575-.763-4.953-3.067-5.538l-44.589-11.311c-2.304-.584-4.683,.832-5.336,3.407l-2.441,9.622Z"/><path class="cls-1" d="M109.883,302.966c2.134,1.048,4.815,.028,5.925-2.23l4.375-8.911c1.171-2.385,.338-5.13-1.795-6.178l-7.154-3.513c-2.134-1.048-4.815-.028-5.986,2.356l-9.737,19.829c-3.883,7.907-12.68,10.597-19.081,7.453l-27.987-13.743c-7.405-3.637-10.026-11.621-6.02-19.779l15.161-30.874c3.76-7.655,11.927-10.966,19.081-7.453l11.044,5.424c2.133,1.048,2.966,3.793,1.857,6.052l-5.917,12.049c-1.171,2.385-3.791,3.278-5.925,2.231l-.627-.309c-2.133-1.048-4.815-.028-5.986,2.356l-4.376,8.911c-1.109,2.259-.276,5.004,1.857,6.052l7.405,3.637c2.133,1.048,4.815,.027,5.924-2.231l9.799-19.955c3.759-7.655,12.555-10.657,19.332-7.33l27.736,13.621c6.777,3.327,9.405,12.251,5.769,19.655l-15.161,30.874c-3.513,7.153-12.304,10.781-19.081,7.453l-10.542-5.177c-2.134-1.048-2.966-3.793-1.857-6.053l5.917-12.048c1.171-2.385,3.791-3.279,5.924-2.231l.125,.062Z"/><path class="cls-1" d="M92.571,192.124c1.635-2.095,4.383-2.432,6.257-.969l24.905,19.453c1.874,1.463,4.597,.929,6.146-1.055l6.111-7.824c1.635-2.094,1.408-4.755-.466-6.219l-24.905-19.453c-1.874-1.463-2.125-4.321-.49-6.415l8.263-10.579c1.549-1.983,4.383-2.431,6.257-.968l69.536,54.313c1.873,1.463,2.125,4.321,.576,6.305l-8.263,10.579c-1.636,2.094-4.469,2.542-6.343,1.078l-21.269-16.612c-1.873-1.463-4.621-1.126-6.256,.969l-6.111,7.823c-1.549,1.984-1.298,4.842,.576,6.306l21.268,16.612c1.874,1.463,2.211,4.211,.576,6.305l-8.263,10.579c-1.549,1.983-4.383,2.432-6.256,.968l-69.536-54.312c-1.874-1.464-2.125-4.321-.576-6.305l8.263-10.579Z"/><path class="cls-1" d="M252.738,127.464c-2.137,1.33-2.883,4.1-1.627,6.118l13.151,21.131c1.256,2.019,.628,4.715-1.627,6.118l-11.396,7.093c-2.137,1.33-4.952,.776-6.208-1.242l-46.62-74.908c-1.256-2.018-.51-4.788,1.627-6.118l35.732-22.238c7.242-4.507,16.293-2.4,20.283,4.011l13.742,22.08c2.143,3.443,2.536,6.986,1.626,10.023-.657,2.385-.213,3.097,2.306,3.176,4.965,.039,9.45,3.012,11.889,6.93l14.259,22.911c1.256,2.019,.51,4.789-1.627,6.118l-11.396,7.093c-2.256,1.404-4.952,.776-6.208-1.241l-13.151-21.132c-1.256-2.018-4.071-2.571-6.327-1.168l-8.429,5.246Zm-4.983-21.768c2.137-1.33,2.957-3.981,1.701-6l-6.649-10.684c-1.256-2.019-4.071-2.572-6.208-1.242l-6.173,3.842c-2.137,1.33-2.883,4.101-1.627,6.118l6.649,10.685c1.256,2.018,3.997,2.453,6.134,1.123l6.173-3.842Z"/><path class="cls-1" d="M298.23,33.312c2.456-1.015,5.012,.047,5.919,2.244l33.689,81.542c.908,2.197-.154,4.754-2.609,5.768l-12.406,5.126c-2.326,.961-5.012-.048-5.919-2.244l-33.689-81.542c-.908-2.197,.283-4.807,2.609-5.769l12.406-5.125Z"/><path class="cls-1" d="M344.074,39.018c-2.589,.596-4.904-.737-5.437-3.054l-2.821-12.264c-.533-2.316,.936-4.662,3.525-5.258l55.322-12.725c2.589-.596,4.936,.873,5.468,3.189l3.855,16.76c.533,2.317,.09,6.006-1.001,8.122l-26.697,50.473c-1.228,2.147-.065,3.458,2.388,2.894l32.975-7.584c2.589-.596,4.935,.873,5.468,3.189l2.789,12.127c.533,2.316-.936,4.663-3.525,5.259l-58.32,13.414c-2.453,.564-4.936-.873-5.468-3.189l-2.789-12.128c-.533-2.316-.09-6.005,1.001-8.121l28.765-55.826c1.092-2.116-.071-3.427-2.523-2.863l-32.975,7.585Z"/><path class="cls-1" d="M435.2,22.22c-2.656,.052-4.649-1.728-4.695-4.104l-.246-12.582c-.046-2.376,1.873-4.372,4.529-4.424L491.547,.001c2.656-.053,4.652,1.866,4.698,4.243l.336,17.195c.046,2.377-1.144,5.896-2.646,7.744l-36.483,43.928c-1.642,1.85-.773,3.371,1.743,3.322l33.832-.661c2.656-.052,4.651,1.867,4.698,4.244l.243,12.442c.046,2.376-1.873,4.372-4.529,4.424l-59.834,1.169c-2.517,.049-4.652-1.867-4.698-4.244l-.243-12.442c-.046-2.376,1.144-5.896,2.646-7.743l39.605-48.744c1.502-1.848,.633-3.368-1.883-3.319l-33.832,.661Z"/><path class="cls-1" d="M523.87,16.522c1.4-7.42,9.626-12.556,17.458-11.078l33.802,6.377c8.382,1.582,13.621,9.259,12.221,16.679l-12.781,67.74c-1.4,7.42-9.299,12.333-17.406,10.804l-33.802-6.378c-7.832-1.478-13.673-8.983-12.273-16.403l12.781-67.74Zm25.498,11.926c-2.473-.467-4.897,1.067-5.338,3.403l-8.529,45.207c-.441,2.336,1.257,4.648,3.73,5.115l9.756,1.84c2.611,.493,4.897-1.067,5.338-3.403l8.529-45.207c.441-2.336-1.12-4.622-3.73-5.115l-9.756-1.84Z"/><path class="cls-1" d="M726.728,76.044c7.312,4.393,9.561,13.41,5.672,19.882l-35.499,59.09c-3.889,6.473-13.002,8.338-20.073,4.09l-38.475-23.114c-2.157-1.296-2.947-4.055-1.723-6.092l45.436-75.63c1.224-2.038,4.03-2.636,6.188-1.34l38.474,23.114Zm-29.93,6.649c-2.157-1.296-4.963-.698-6.188,1.339l-23.69,39.434c-1.224,2.038-.435,4.796,1.723,6.092l8.51,5.112c2.277,1.368,4.963,.698,6.188-1.339l23.69-39.434c1.224-2.037,.554-4.724-1.723-6.092l-8.51-5.112Z"/><path class="cls-1" d="M703.133,177.777c-1.859-1.695-2.09-4.556-.488-6.312l59.455-65.193c1.602-1.757,4.471-1.79,6.331-.094l35.128,32.036c1.859,1.695,2.09,4.556,.488,6.312l-8.48,9.299c-1.602,1.757-4.376,1.687-6.236-.01l-18.39-16.771c-1.86-1.696-4.729-1.663-6.331,.094l-5.748,6.302c-1.602,1.757-1.371,4.616,.489,6.312l10.951,9.987c1.86,1.696,2.09,4.556,.489,6.312l-8.386,9.195c-1.602,1.756-4.471,1.789-6.331,.094l-10.952-9.988c-1.859-1.696-4.729-1.663-6.33,.094l-5.183,5.683c-1.602,1.756-1.371,4.616,.489,6.312l19.733,17.997c1.86,1.696,2.09,4.556,.489,6.312l-8.386,9.195c-1.602,1.756-4.471,1.789-6.331,.093l-36.471-33.261Z"/><path class="cls-1" d="M785.608,226.545c-1.916,1.407-2.252,4.256-.763,6.284l5.875,8.002c1.572,2.142,4.391,2.674,6.307,1.267l6.424-4.717c1.915-1.406,2.252-4.256,.68-6.396l-13.074-17.807c-5.213-7.101-3.527-16.145,2.221-20.364l25.133-18.453c6.649-4.882,14.94-3.512,20.319,3.814l20.356,27.725c5.047,6.875,4.203,15.647-2.221,20.363l-9.918,7.282c-1.916,1.406-4.735,.875-6.225-1.154l-7.943-10.819c-1.572-2.141-1.153-4.877,.763-6.284l.563-.413c1.916-1.407,2.253-4.256,.681-6.397l-5.875-8.002c-1.49-2.028-4.309-2.561-6.225-1.154l-6.649,4.883c-1.916,1.406-2.253,4.256-.764,6.284l13.157,17.92c5.048,6.874,3.64,16.061-2.446,20.529l-24.907,18.287c-6.086,4.469-15.212,2.67-20.094-3.979l-20.356-27.725c-4.717-6.424-3.865-15.896,2.221-20.364l9.467-6.95c1.916-1.407,4.735-.875,6.225,1.153l7.944,10.819c1.572,2.142,1.153,4.878-.763,6.284l-.113,.083Z"/><path class="cls-1" d="M892.23,263.527c1.201,2.369,.34,5.001-1.78,6.075l-78.701,39.891c-2.121,1.074-4.752,.213-5.953-2.156l-6.069-11.974c-1.138-2.245-.34-5.001,1.78-6.076l78.702-39.89c2.12-1.075,4.814-.089,5.953,2.156l6.068,11.974Z"/><path class="cls-1" d="M896.821,345.69c2.269-.711,3.509-3.298,2.714-5.833l-2.97-9.473c-.752-2.402-3.248-3.817-5.516-3.106l-43.896,13.76c-2.269,.711-3.509,3.298-2.756,5.699l2.97,9.474c.795,2.535,3.023,4.034,5.024,3.407,2.001-.628,3.192-2.906,2.564-4.907-.627-2.001,.521-4.413,2.664-5.524l11.831-6.199c2.143-1.111,4.421,.079,5.174,2.48l7.045,23.875c.753,2.401-.488,4.988-2.756,5.699l-30.287,9.494c-7.205,2.259-15.259-2.396-17.727-10.269l-10.288-32.822c-2.385-7.605,1.486-16.292,8.691-18.55l65.777-20.62c7.205-2.258,15.609,2.581,17.993,10.186l10.289,32.822c2.551,8.139-1.754,16.375-8.959,18.634l-16.277,5.103c-2.269,.711-4.764-.705-5.517-3.106l-4.016-12.809c-.794-2.535,.488-4.988,2.756-5.699l5.471-1.715Z"/><path class="cls-1" d="M896.898,443.219c-2.132,1.309-1.78,2.12,.448,1.926l37.331-3.247c2.368-.205,4.488,1.575,4.719,4.222l1.163,13.373c.218,2.507-1.551,4.766-3.919,4.972l-87.896,7.646c-2.368,.205-4.5-1.714-4.718-4.222l-1.236-14.208c-.218-2.508,1.199-5.578,3.344-6.747l46.537-26.504c2.004-1.157,1.792-1.98-.576-1.774l-47.64,4.144c-2.368,.206-4.487-1.575-4.718-4.222l-1.163-13.372c-.218-2.508,1.551-4.767,3.918-4.973l87.897-7.645c2.368-.206,4.5,1.714,4.718,4.221l1.6,18.388c.229,2.646-1.339,5.59-3.331,6.886l-36.478,21.138Z"/></g><circle class="cls-1" cx="725.714" cy="711.361" r="11.624"/><circle class="cls-1" cx="210.841" cy="711.361" r="11.624"/></svg>