<?xml version="1.0" encoding="UTF-8"?><svg id="Layer_1" xmlns="http://www.w3.org/2000/svg" viewBox="0 0 856.393 856.393"><defs><style>.cls-1{fill:#f1f0f0;}.cls-2{fill:#1e2a46;}</style></defs><circle class="cls-2" cx="428.197" cy="428.197" r="420.184"/><g><path class="cls-1" d="M93.705,411.932c1.998,.145,3.77-1.501,3.923-3.616l.6-8.344c.161-2.233-1.366-3.997-3.364-4.141l-56.416-4.06c-1.998-.144-3.517-2.025-3.356-4.259l.812-11.283c.152-2.116,1.925-3.761,3.923-3.617l66.172,4.762c6.347,.457,11.221,6.596,10.722,13.531l-2.081,28.913c-.482,6.699-6.203,12.313-12.549,11.856l-26.328-1.895c-1.998-.144-3.517-2.025-3.365-4.141l.812-11.283c.161-2.233,1.925-3.761,3.923-3.617l16.573,1.192Z"/><path class="cls-1" d="M52.085,350.121c-6.124-1.729-9.821-9.018-7.996-15.482l7.877-27.898c1.953-6.918,8.788-10.742,14.912-9.014l55.909,15.785c6.124,1.73,9.658,8.727,7.769,15.418l-7.877,27.898c-1.825,6.464-8.562,10.808-14.685,9.079l-55.909-15.786Zm11.914-20.513c-.576,2.041,.531,4.191,2.459,4.735l37.31,10.534c1.928,.545,3.996-.709,4.572-2.75l2.273-8.052c.609-2.155-.531-4.191-2.459-4.735l-37.31-10.535c-1.928-.544-3.964,.596-4.572,2.751l-2.273,8.052Z"/><path class="cls-1" d="M127.204,281.244c1.777,.923,4.056,.116,5.034-1.767l3.857-7.424c1.032-1.987,.383-4.316-1.394-5.239l-5.96-3.097c-1.778-.924-4.056-.116-5.089,1.871l-8.584,16.521c-3.423,6.587-10.887,8.684-16.219,5.914l-23.316-12.116c-6.169-3.206-8.225-9.984-4.693-16.78l13.365-25.721c3.314-6.378,10.259-9.011,16.219-5.914l9.201,4.781c1.778,.923,2.427,3.252,1.449,5.134l-5.216,10.038c-1.032,1.987-3.257,2.69-5.034,1.767l-.522-.272c-1.778-.924-4.057-.116-5.089,1.871l-3.858,7.424c-.978,1.882-.329,4.211,1.449,5.135l6.169,3.206c1.777,.922,4.056,.116,5.034-1.767l8.638-16.625c3.314-6.378,10.782-8.739,16.429-5.805l23.107,12.006c5.646,2.935,7.689,10.502,4.484,16.672l-13.365,25.721c-3.096,5.96-10.573,8.847-16.219,5.914l-8.783-4.564c-1.778-.923-2.427-3.252-1.449-5.134l5.216-10.038c1.032-1.986,3.257-2.689,5.034-1.767l.104,.055Z"/><path class="cls-1" d="M113.82,188.732c1.411-1.738,3.731-1.979,5.287-.717l20.676,16.784c1.555,1.263,3.858,.856,5.195-.791l5.273-6.495c1.411-1.738,1.262-3.984-.294-5.247l-20.676-16.784c-1.555-1.263-1.722-3.675-.311-5.413l7.13-8.782c1.337-1.647,3.732-1.979,5.287-.717l57.727,46.862c1.555,1.263,1.722,3.675,.385,5.321l-7.13,8.782c-1.411,1.738-3.806,2.07-5.361,.808l-17.657-14.333c-1.555-1.263-3.876-1.022-5.287,.717l-5.273,6.496c-1.337,1.646-1.17,4.058,.385,5.321l17.656,14.334c1.555,1.262,1.797,3.583,.385,5.321l-7.13,8.782c-1.337,1.646-3.731,1.979-5.287,.716l-57.726-46.862c-1.555-1.263-1.722-3.675-.385-5.321l7.13-8.782Z"/><path class="cls-1" d="M247.546,138.171c-1.813,1.101-2.468,3.428-1.428,5.141l10.884,17.93c1.039,1.712,.485,3.979-1.429,5.141l-9.67,5.87c-1.813,1.101-4.18,.608-5.22-1.105l-38.584-63.563c-1.04-1.712-.385-4.04,1.428-5.141l30.321-18.405c6.145-3.73,13.753-1.869,17.055,3.57l11.374,18.736c1.773,2.922,2.071,5.911,1.276,8.461-.575,2.004-.209,2.608,1.914,2.698,4.184,.08,7.936,2.627,9.953,5.951l11.802,19.442c1.039,1.712,.384,4.04-1.429,5.141l-9.67,5.87c-1.914,1.162-4.18,.608-5.22-1.105l-10.884-17.93c-1.039-1.712-3.407-2.205-5.321-1.043l-7.152,4.342Zm-3.995-18.391c1.813-1.101,2.529-3.327,1.49-5.04l-5.503-9.066c-1.039-1.712-3.407-2.205-5.22-1.105l-5.238,3.18c-1.813,1.101-2.468,3.428-1.428,5.141l5.503,9.066c1.039,1.712,3.345,2.104,5.159,1.004l5.238-3.18Z"/><path class="cls-1" d="M285.337,59.805c2.075-.84,4.224,.07,4.975,1.928l27.892,68.927c.752,1.857-.159,4.005-2.234,4.845l-10.487,4.243c-1.966,.796-4.224-.07-4.975-1.927l-27.892-68.927c-.751-1.857,.268-4.05,2.234-4.845l10.487-4.243Z"/><path class="cls-1" d="M322.539,65.297c-2.184,.494-4.131-.636-4.574-2.589l-2.342-10.344c-.442-1.954,.802-3.927,2.986-4.422l46.662-10.565c2.184-.494,4.157,.75,4.599,2.704l3.2,14.137c.442,1.954,.058,5.061-.867,6.841l-22.646,42.461c-1.041,1.807-.065,2.915,2.004,2.446l27.814-6.297c2.184-.494,4.157,.75,4.599,2.704l2.316,10.229c.442,1.954-.802,3.927-2.986,4.422l-49.19,11.137c-2.069,.469-4.157-.75-4.6-2.704l-2.316-10.229c-.442-1.954-.058-5.061,.868-6.841l24.405-46.967c.926-1.78-.05-2.888-2.119-2.42l-27.813,6.297Z"/><path class="cls-1" d="M397.952,51.523c-2.238,.045-3.918-1.454-3.958-3.457l-.211-10.603c-.04-2.003,1.577-3.685,3.815-3.729l47.83-.952c2.238-.045,3.921,1.572,3.96,3.575l.289,14.49c.04,2.003-.962,4.969-2.227,6.526l-30.73,37.029c-1.383,1.559-.651,2.841,1.47,2.799l28.51-.567c2.238-.045,3.92,1.572,3.96,3.575l.209,10.485c.04,2.003-1.577,3.685-3.815,3.729l-50.422,1.003c-2.121,.042-3.92-1.572-3.96-3.575l-.209-10.485c-.04-2.003,.962-4.969,2.227-6.526l33.36-41.088c1.265-1.557,.533-2.839-1.588-2.797l-28.51,.567Z"/><path class="cls-1" d="M471.186,46.525c1.153-6.258,8.066-10.615,14.671-9.398l28.506,5.251c7.069,1.302,11.512,7.752,10.359,14.009l-10.524,57.129c-1.153,6.258-7.791,10.426-14.628,9.167l-28.507-5.251c-6.605-1.217-11.554-7.52-10.402-13.778l10.524-57.129Zm21.53,9.957c-2.086-.384-4.123,.918-4.486,2.888l-7.023,38.124c-.363,1.97,1.077,3.913,3.162,4.297l8.227,1.515c2.202,.406,4.123-.918,4.486-2.887l7.023-38.125c.363-1.97-.961-3.891-3.162-4.297l-8.227-1.515Z"/><path class="cls-1" d="M639.805,94.296c6.206,3.628,8.193,11.204,4.982,16.698l-29.316,50.158c-3.211,5.494-10.872,7.159-16.875,3.65l-32.659-19.088c-1.832-1.071-2.525-3.387-1.514-5.116l37.522-64.198c1.011-1.73,3.369-2.262,5.201-1.192l32.659,19.088Zm-25.156,5.908c-1.831-1.07-4.19-.538-5.2,1.192l-19.564,33.472c-1.011,1.73-.317,4.046,1.514,5.117l7.223,4.222c1.933,1.13,4.19,.538,5.201-1.192l19.564-33.472c1.011-1.73,.419-3.987-1.514-5.116l-7.224-4.222Z"/><path class="cls-1" d="M619.987,179.53c-1.59-1.404-1.822-3.811-.496-5.312l49.231-55.721c1.326-1.501,3.743-1.567,5.333-.162l30.024,26.527c1.589,1.404,1.822,3.811,.495,5.312l-7.022,7.948c-1.326,1.501-3.665,1.479-5.254,.075l-15.719-13.888c-1.589-1.404-4.006-1.339-5.333,.163l-4.759,5.386c-1.327,1.501-1.094,3.908,.495,5.312l9.36,8.27c1.589,1.404,1.822,3.811,.496,5.312l-6.944,7.86c-1.326,1.501-3.743,1.567-5.333,.162l-9.361-8.27c-1.589-1.404-4.006-1.338-5.333,.163l-4.291,4.857c-1.327,1.501-1.094,3.908,.495,5.312l16.866,14.902c1.589,1.404,1.822,3.811,.495,5.312l-6.944,7.859c-1.327,1.501-3.743,1.567-5.333,.163l-31.172-27.542Z"/><path class="cls-1" d="M689.336,218.54c-1.591,1.217-1.828,3.623-.539,5.307l5.082,6.647c1.36,1.778,3.744,2.18,5.335,.963l5.335-4.08c1.591-1.217,1.828-3.623,.468-5.401l-11.309-14.788c-4.509-5.897-3.237-13.544,1.536-17.195l20.872-15.961c5.522-4.223,12.531-3.205,17.184,2.879l17.608,23.026c4.366,5.71,3.799,13.115-1.536,17.195l-8.237,6.299c-1.591,1.217-3.976,.815-5.264-.87l-6.871-8.986c-1.36-1.778-1.051-4.091,.54-5.307l.468-.358c1.591-1.217,1.828-3.623,.468-5.401l-5.082-6.645c-1.288-1.685-3.672-2.087-5.264-.87l-5.522,4.223c-1.591,1.217-1.828,3.623-.539,5.307l11.38,14.882c4.366,5.71,3.331,13.473-1.723,17.339l-20.685,15.818c-5.055,3.865-12.774,2.5-16.997-3.022l-17.608-23.025c-4.08-5.336-3.519-13.33,1.536-17.195l7.862-6.012c1.591-1.217,3.975-.815,5.264,.87l6.871,8.985c1.36,1.779,1.051,4.091-.539,5.308l-.094,.071Z"/><path class="cls-1" d="M779.084,246.59c1.059,1.973,.385,4.206-1.38,5.154l-65.514,35.161c-1.765,.948-3.999,.274-5.058-1.699l-5.35-9.967c-1.003-1.869-.385-4.206,1.38-5.154l65.514-35.163c1.765-.946,4.054-.169,5.057,1.699l5.35,9.967Z"/><path class="cls-1" d="M784.146,314.321c1.894-.652,2.879-2.859,2.151-4.977l-2.722-7.91c-.69-2.006-2.825-3.141-4.719-2.489l-36.658,12.612c-1.894,.652-2.879,2.859-2.189,4.865l2.722,7.911c.728,2.117,2.64,3.329,4.312,2.754,1.671-.575,2.621-2.522,2.046-4.193-.575-1.672,.336-3.729,2.116-4.715l9.822-5.498c1.779-.986,3.726-.036,4.416,1.97l6.489,19.947c.69,2.006-.295,4.214-2.189,4.865l-25.293,8.702c-6.017,2.07-12.909-1.664-15.171-8.239l-9.43-27.409c-2.185-6.351,.874-13.758,6.891-15.829l54.93-18.899c6.017-2.07,13.209,1.811,15.394,8.162l9.43,27.41c2.338,6.796-1.096,13.835-7.113,15.905l-13.593,4.677c-1.894,.652-4.029-.483-4.719-2.488l-3.68-10.696c-.728-2.117,.295-4.214,2.189-4.865l4.568-1.572Z"/><path class="cls-1" d="M786.346,395.122c-1.762,1.158-1.444,1.832,.428,1.611l31.361-3.713c1.989-.236,3.821,1.209,4.084,3.432l1.33,11.234c.249,2.106-1.181,4.055-3.17,4.29l-73.837,8.742c-1.989,.235-3.835-1.327-4.085-3.433l-1.413-11.936c-.249-2.106,.864-4.73,2.639-5.77l38.505-23.543c1.658-1.027,1.458-1.715-.531-1.48l-40.019,4.737c-1.989,.236-3.822-1.208-4.085-3.432l-1.33-11.233c-.249-2.106,1.181-4.056,3.17-4.291l73.837-8.741c1.989-.236,3.836,1.326,4.085,3.432l1.829,15.447c.263,2.223-.981,4.744-2.626,5.887l-30.173,18.76Z"/></g><g><path class="cls-1" d="M786.061,535.903c1.931,.534,3.992-.729,4.59-2.887l2.233-8.063c.566-2.044-.552-4.188-2.483-4.723l-37.363-10.345c-1.93-.535-3.992,.728-4.558,2.773l-2.232,8.064c-.597,2.157,.294,4.238,1.997,4.71,1.704,.471,3.588-.597,4.06-2.3,.472-1.703,2.388-2.885,4.413-2.691l11.209,1.026c2.025,.194,3.093,2.079,2.527,4.123l-5.938,20.12c-.566,2.045-2.627,3.308-4.558,2.773l-25.779-7.137c-6.133-1.699-9.702-8.678-7.847-15.378l7.735-27.937c1.792-6.473,8.506-10.85,14.639-9.152l55.987,15.501c6.133,1.699,9.866,8.968,8.074,15.441l-7.735,27.937c-1.918,6.927-8.733,10.787-14.866,9.088l-13.855-3.835c-1.93-.535-3.049-2.679-2.483-4.723l3.019-10.902c.597-2.158,2.628-3.309,4.558-2.773l4.656,1.289Z"/><path class="cls-1" d="M734.861,578.945c.961-1.891,.29-4.214-1.496-5.12l-18.701-9.5c-1.786-.907-2.51-3.125-1.496-5.121l5.123-10.086c.961-1.891,3.232-2.719,5.018-1.813l66.295,33.674c1.786,.907,2.457,3.23,1.496,5.121l-16.063,31.624c-3.255,6.409-10.701,8.839-16.375,5.956l-19.542-9.926c-3.047-1.548-4.876-3.931-5.545-6.517-.567-2.006-1.197-2.326-3.049-1.284-3.597,2.138-8.128,1.952-11.595,.19l-20.278-10.3c-1.786-.907-2.456-3.229-1.496-5.12l5.123-10.086c1.014-1.997,3.232-2.72,5.018-1.814l18.701,9.5c1.786,.907,4.057,.078,5.071-1.918l3.789-7.461Zm13.09,13.522c-.961,1.891-.395,4.161,1.391,5.069l9.456,4.803c1.786,.907,4.058,.078,5.018-1.813l2.775-5.464c.961-1.891,.29-4.214-1.496-5.121l-9.455-4.803c-1.786-.907-3.953-.025-4.913,1.866l-2.775,5.463Z"/><path class="cls-1" d="M690.72,632.395c1.326-1.655,1.291-4.25,.023-5.871l-7.98-9.262c-1.342-1.528-1.285-4.05,.041-5.705l7.957-9.931c1.327-1.655,3.406-1.802,4.748-.272l49.13,57.782c1.342,1.529,1.304,4.215-.023,5.871l-16.43,20.507c-1.327,1.655-3.867,2.186-5.651,1.21l-66.886-35.62c-1.785-.977-2.096-3.038-.77-4.693l7.515-9.38c1.327-1.655,3.848-2.353,5.632-1.376l10.853,5.676c1.785,.976,4.325,.444,5.651-1.212l6.189-7.724Zm9.097,17.103c-1.326,1.655-1.015,3.716,.77,4.693l21.634,10.688c1.766,.812,2.134,.352,.958-1.195l-15.445-18.414c-1.269-1.62-3.422-1.383-4.748,.272l-3.168,3.955Z"/><path class="cls-1" d="M669.651,741.151c-5.525,4.599-13.324,3.885-17.395-1.005l-19.073-22.912c-4.071-4.891-3.026-12.66,2.318-17.108l14.4-11.986c1.63-1.357,1.933-3.756,.652-5.295l-13.42-16.121c-1.281-1.54-1.069-3.864,.652-5.296l8.694-7.237c1.63-1.357,4.044-1.22,5.326,.319l47.57,57.146c1.281,1.54,.979,3.938-.652,5.295l-29.071,24.2Zm3.016-25.662c1.63-1.358,1.933-3.756,.651-5.295l-6.785-8.151c-1.281-1.54-3.62-1.586-5.25-.229l-6.43,5.352c-1.721,1.432-2.099,3.741-.817,5.281l6.785,8.151c1.281,1.539,3.695,1.676,5.416,.244l6.43-5.352Z"/><path class="cls-1" d="M626.544,770.056c-1.969,1.065-4.205,.4-5.159-1.362l-12.675-23.422c-.953-1.762-3.237-2.268-5.102-1.259l-7.359,3.983c-1.969,1.066-2.691,3.198-1.737,4.96l12.675,23.422c.954,1.762,.184,4.054-1.785,5.12l-9.949,5.384c-1.866,1.01-4.205,.4-5.159-1.362l-35.39-65.396c-.953-1.762-.184-4.054,1.681-5.063l9.949-5.385c1.969-1.065,4.309-.456,5.263,1.306l10.824,20.002c.953,1.762,3.189,2.428,5.159,1.362l7.358-3.981c1.866-1.011,2.635-3.302,1.681-5.064l-10.824-20.002c-.953-1.762-.288-3.999,1.681-5.064l9.949-5.385c1.866-1.009,4.205-.4,5.159,1.362l35.389,65.396c.953,1.761,.184,4.053-1.681,5.063l-9.949,5.385Z"/><path class="cls-1" d="M554.254,802.669c-2.112,.745-4.216-.262-4.882-2.151l-24.724-70.126c-.667-1.889,.341-3.994,2.452-4.738l10.669-3.762c2-.705,4.216,.262,4.882,2.152l24.724,70.125c.667,1.889-.452,4.033-2.452,4.738l-10.669,3.762Z"/><path class="cls-1" d="M488.087,797.051c.362,1.97,2.399,3.274,4.601,2.869l8.228-1.513c2.086-.384,3.526-2.325,3.164-4.296l-7.009-38.129c-.362-1.97-2.399-3.273-4.485-2.889l-8.228,1.512c-2.202,.405-3.642,2.348-3.28,4.318l1.577,8.576c.362,1.97-.962,3.89-3.164,4.296l-11.126,2.046c-2.086,.383-4.123-.92-4.485-2.89l-3.345-18.196c-1.15-6.258,3.57-12.517,10.408-13.774l28.51-5.241c6.606-1.214,13.475,2.915,14.626,9.173l10.503,57.136c1.15,6.258-3.759,12.792-10.365,14.006l-28.51,5.241c-7.07,1.3-13.518-3.147-14.668-9.405l-3.281-17.848c-.362-1.97,1.078-3.913,3.164-4.296l11.126-2.045c2.202-.404,4.122,.92,4.485,2.89l1.555,8.46Z"/><path class="cls-1" d="M431.201,763.07c.032-2.003-1.708-3.681-3.829-3.716l-8.365-.136c-2.239-.037-4.033,1.584-4.065,3.588l-.109,6.716c-.033,2.003,1.708,3.681,3.947,3.717l18.616,.302c7.423,.122,12.633,5.862,12.535,11.872l-.426,26.274c-.113,6.951-5.26,11.818-12.918,11.693l-28.984-.471c-7.187-.116-12.644-5.154-12.535-11.87l.168-10.369c.033-2.002,1.827-3.623,3.948-3.589l11.311,.184c2.239,.036,3.861,1.712,3.829,3.716l-.009,.589c-.033,2.003,1.708,3.681,3.947,3.717l8.365,.136c2.121,.034,3.915-1.587,3.947-3.59l.113-6.951c.032-2.003-1.708-3.681-3.829-3.716l-18.734-.305c-7.187-.117-12.635-5.745-12.531-12.107l.423-26.038c.104-6.363,5.963-11.571,12.914-11.458l28.984,.47c6.716,.11,12.639,5.509,12.536,11.872l-.161,9.896c-.033,2.003-1.827,3.623-3.948,3.589l-11.311-.183c-2.239-.037-3.861-1.712-3.829-3.716l.002-.118Z"/><path class="cls-1" d="M301.438,717.957c.572-1.421,2.214-2.032,3.745-1.416l12.355,4.968c1.421,.571,2.185,2.148,1.613,3.569l-7.561,18.806c-.571,1.42,.301,3.043,1.722,3.613l20.227,8.133c1.531,.615,2.294,2.193,1.722,3.613l-4.615,11.481c-.572,1.421-2.214,2.031-3.745,1.416l-20.227-8.133c-1.421-.572-3.173-.006-3.745,1.416l-8.396,20.883c-.528,1.312-2.214,2.031-3.635,1.46l-12.355-4.968c-1.531-.616-2.25-2.301-1.722-3.614l8.396-20.883c.571-1.421-.192-2.998-1.722-3.613l-20.227-8.133c-1.421-.572-2.185-2.148-1.613-3.569l4.616-11.481c.571-1.421,2.214-2.032,3.635-1.459l20.227,8.132c1.531,.616,3.173,.006,3.745-1.415l7.561-18.806Z"/><path class="cls-1" d="M194.403,680.608c1.215-1.632,.73-2.146-1.051-1.115l-42.664,25.011c-1.695,.951-4.351,.539-5.806-1.003l-8.247-8.744c-1.455-1.544-1.71-4.218-.662-5.855l27.206-40.886c1.134-1.718,.649-2.232-1.051-1.115l-41.113,26.14c-1.695,.95-4.27,.624-5.725-.919l-8.247-8.744c-1.455-1.543-1.225-3.704,.389-4.741l64.213-40.635c1.781-1.032,4.27-.626,5.725,.917l14.554,15.432c1.455,1.544,1.796,4.138,.662,5.855l-13.895,21.851c-1.134,1.717-.568,2.317,1.213,1.286l22.707-12.507c1.781-1.031,4.351-.539,5.887,1.09l14.473,15.345c1.455,1.544,1.796,4.138,.581,5.769l-44.322,61.726c-1.049,1.636-3.219,1.74-4.755,.11l-8.166-8.659c-1.536-1.629-1.71-4.218-.496-5.849l28.591-39.762Z"/><path class="cls-1" d="M162.862,596.225c1.015,1.863,.413,4.204-1.346,5.164l-65.287,35.589c-1.759,.958-4.054,.195-5.069-1.666l-19.176-35.179c-1.015-1.862-.412-4.204,1.346-5.163l9.312-5.076c1.759-.958,3.95-.14,4.965,1.722l10.04,18.417c1.015,1.861,3.31,2.624,5.069,1.665l6.311-3.44c1.759-.959,2.361-3.301,1.346-5.163l-5.978-10.968c-1.015-1.862-.413-4.203,1.346-5.163l9.209-5.019c1.759-.959,4.053-.197,5.069,1.665l5.978,10.967c1.015,1.863,3.31,2.626,5.069,1.666l5.691-3.102c1.759-.958,2.361-3.299,1.346-5.163l-10.772-19.762c-1.015-1.862-.413-4.204,1.346-5.163l9.208-5.02c1.759-.958,4.053-.196,5.069,1.665l19.909,36.524Z"/><path class="cls-1" d="M47.959,536.158c-2.174-6.853,1.431-13.807,7.497-15.731l17.523-5.558c3.145-.997,6.233-.618,8.523,.758,1.811,1.033,2.485,.819,3.074-1.223,1.066-4.046,4.427-7.09,8.021-8.23l17.523-5.559c6.066-1.924,12.866,1.977,14.968,8.604l11.437,36.057c.642,2.022-.397,4.205-2.306,4.811l-70.879,22.483c-1.909,.606-4.017-.581-4.658-2.603l-10.724-33.81Zm33.652,.081c-.641-2.023-2.748-3.208-4.658-2.603l-6.627,2.102c-1.909,.606-2.948,2.789-2.306,4.811l1.853,5.842c.641,2.022,2.748,3.207,4.658,2.602l6.627-2.103c1.909-.606,2.948-2.789,2.306-4.811l-1.853-5.84Zm18.556-12.439c-1.91,.606-2.948,2.789-2.271,4.924l2.53,7.975c.642,2.022,2.748,3.208,4.658,2.603l6.402-2.031c1.91-.606,2.948-2.79,2.307-4.812l-2.53-7.974c-.677-2.135-2.784-3.322-4.694-2.716l-6.402,2.031Z"/></g><path class="cls-1" d="M428.197,856.393c-57.803,0-113.881-11.322-166.676-33.653-50.99-21.567-96.783-52.44-136.105-91.762-39.322-39.322-70.196-85.115-91.763-136.105C11.323,542.077,0,485.999,0,428.196s11.323-113.881,33.653-166.676c21.567-50.99,52.441-96.782,91.763-136.105,39.322-39.322,85.114-70.196,136.105-91.762C314.316,11.322,370.394,0,428.197,0c57.803,0,113.881,11.322,166.676,33.653,50.99,21.567,96.783,52.44,136.105,91.762,39.322,39.322,70.196,85.115,91.763,136.105,22.331,52.795,33.653,108.873,33.653,166.676s-11.322,113.881-33.653,166.676c-21.567,50.99-52.441,96.782-91.763,136.105-39.322,39.322-85.114,70.196-136.105,91.762-52.795,22.331-108.873,33.653-166.676,33.653Zm0-840.367c-55.646,0-109.624,10.897-160.433,32.387-49.08,20.759-93.16,50.48-131.016,88.335-37.856,37.855-67.576,81.935-88.335,131.016-21.491,50.809-32.387,104.786-32.387,160.432,0,55.646,10.897,109.624,32.387,160.433,20.759,49.08,50.479,93.16,88.335,131.016,37.856,37.855,81.936,67.576,131.016,88.335,50.809,21.49,104.787,32.387,160.433,32.387,55.646,0,109.624-10.896,160.433-32.387,49.08-20.759,93.16-50.48,131.016-88.335,37.856-37.856,67.576-81.936,88.335-131.016,21.49-50.81,32.387-104.787,32.387-160.433,0-55.646-10.897-109.624-32.387-160.432-20.759-49.081-50.479-93.161-88.335-131.016-37.856-37.855-81.936-67.576-131.016-88.335-50.809-21.49-104.787-32.387-160.433-32.387Z"/><g id="_7d4GXT"><path class="cls-1" d="M427.916,721.513c-162.89-.08-293.311-131.13-293.19-294.602,.12-162.215,131.777-292.424,295.704-292.03,161.083,.387,292.541,133.456,291.228,296.746-1.281,159.357-132.651,289.965-293.742,289.886Zm-10.238-481.799c-20.318-1.432-39.95-2.92-59.603-4.009-1.65-.091-4.364,2.157-5.024,3.906-3.25,8.614-6.534,17.286-8.77,26.198-5.436,21.669-10.298,43.483-15.511,65.752,30.137,7.878,59.036,12.358,88.907,12.605,0-35.404,0-69.739,0-104.452Zm20.827,376.921c20.33,1.427,40.323,2.905,60.335,4.068,1.323,.077,3.508-1.99,4.065-3.509,3.242-8.833,6.706-17.652,8.996-26.752,5.446-21.638,10.277-43.431,15.468-65.639-30.111-7.979-59.037-12.269-88.865-12.644,0,35.391,0,69.866,0,104.477Zm-21.016,.242c0-35.152,0-69.613,0-104.733-29.96,.485-58.877,4.632-87.567,12.428,4.373,29.178,10.649,57.069,20.11,84.195,4.251,12.19,4.365,12.146,16.976,11.095,1.669-.139,3.345-.196,5.018-.295,15.014-.888,30.029-1.777,45.462-2.69Zm108.409-284.924c-2.052-23.095-14.608-73.54-22.608-92.734-1.467-3.519-3.412-3.945-6.712-3.679-13.57,1.097-27.159,1.97-40.744,2.883-5.756,.387-11.52,.669-17.282,.998,0,35.197,0,69.677,0,104.745,29.865-.349,58.654-4.677,87.346-12.214Zm112.324,106.536c-.426,1.271-.777,1.852-.796,2.442-1.031,33.427-5.946,66.241-15.125,98.428-.434,1.523,.913,4.324,2.304,5.454,4.211,3.421,8.966,6.161,13.301,9.442,7.452,5.64,14.746,11.488,22.416,17.491,25.053-41.088,38.72-85.136,40.48-133.257-21.395,0-41.873,0-62.58,0ZM196.039,285.394c-20.449,24.407-45.236,106.3-39.791,132.115,20.61,0,41.227,0,61.618,0,.405-.863,.72-1.232,.735-1.611,1.272-33.639,5.946-66.741,15.37-99.126,.388-1.332-.447-3.831-1.556-4.663-12.019-9.028-24.208-17.831-36.376-26.715Zm504.794,132.61c-1.913-48.626-15.555-92.729-40.523-133.371-8.868,6.91-16.901,13.278-25.058,19.482-4.312,3.28-11.173,5.457-12.638,9.624-1.573,4.475,1.739,10.722,3.079,16.156,6.585,26.706,10.761,53.765,11.357,81.281,.12,5.53,1.774,7.372,7.268,6.927,5.826-.472,11.721-.1,17.586-.1,12.722,.001,25.443,0,38.929,0Zm-505.28,153.374c12.188-8.968,23.502-17.569,35.149-25.692,3.425-2.388,3.587-4.359,2.845-8.21-4.705-24.413-9.177-48.876-13.235-73.404-1.384-8.363-1.35-16.96-1.958-25.355-21.315,0-41.945,0-63.048,0,1.954,48.116,15.538,92.085,40.248,132.662Zm243.027-132.776c0,17.749,0,35.028,0,51.191,30.343,4.152,60.125,8.228,91.068,12.463,1.274-20.37,2.611-41.765,3.98-63.654-32.358,0-63.324,0-95.049,0Zm-112.078-84.512c-1.261,20.32-2.587,41.704-3.935,63.418,32.597,0,63.693,0,94.965,0,0-17.675,0-34.788,0-50.95-30.273-4.146-60.054-8.225-91.03-12.468Zm-3.986,84.353c1.401,22.107,2.764,43.615,4.043,63.809,31.271-4.287,61.018-8.365,90.756-12.442,0-16.686,0-33.935,0-51.367-31.374,0-62.158,0-94.799,0Zm116.053-71.878c0,16.496,0,33.584,0,51.064,31.511,0,62.614,0,95.079,0-1.38-21.836-2.732-43.221-4.016-63.53-30.95,4.237-60.724,8.313-91.063,12.466Zm-199.489,71.945c1.054,32.141,5.239,62.963,14.044,92.547,17.512-6.967,34.248-13.527,50.85-20.411,1.389-.576,2.745-3.384,2.646-5.069-1.013-17.153-2.347-34.287-3.556-51.429-.363-5.148-.617-10.303-.932-15.638-21.116,0-41.586,0-63.052,0Zm364.036-113.271c-17.464,6.963-34.534,13.686-51.483,20.703-1.208,.5-2.245,3.204-2.142,4.805,1.012,15.671,2.332,31.321,3.459,46.985,.474,6.595,.695,13.207,1.029,19.783,21.301,0,41.914,0,63.075,0-.955-31.816-5.338-62.512-13.938-92.276Zm-.064,206.156c8.632-30.148,13.188-60.969,13.932-92.726-21.416,0-42.044,0-62.632,0-1.407,20.028-2.741,39.644-4.18,59.253-.863,11.763-.832,11.494,10.107,15.793,14.183,5.574,28.18,11.622,42.772,17.679ZM253.062,325.281c-8.643,29.719-13.064,60.505-13.912,92.334,21.372,0,41.984,0,62.418,0,.37-.74,.686-1.093,.712-1.467,1.558-22.133,3.142-44.265,4.503-66.41,.08-1.309-1.349-3.477-2.592-3.986-16.799-6.878-33.69-13.533-51.128-20.471Zm271.241-92.83c7.82,31.242,15.511,61.97,23.504,93.903,15-6.749,30.286-13.519,45.407-20.639,1.204-.567,2.242-3.914,1.713-5.373-9.118-25.154-21.236-48.767-37.136-70.349-.882-1.197-2.678-2.741-3.815-2.57-10.278,1.541-20.504,3.429-29.673,5.028Zm73.777,319.454c-18.426-7.907-34.648-14.867-50.321-21.593-8.019,31.956-15.722,62.653-23.484,93.588,8.653,1.482,17.968,2.845,27.164,4.77,3.576,.749,5.383-.403,7.139-3.168,4.49-7.07,9.774-13.708,13.618-21.102,8.752-16.836,16.831-34.022,25.884-52.496Zm-289.706-225.801c8.038-32.018,15.745-62.717,23.5-93.61-8.018-1.435-16.704-2.741-25.263-4.623-4.486-.987-7.122,.045-9.828,3.899-15.028,21.407-26.806,44.458-35.853,68.948-.408,1.104-.416,2.355-.779,4.56,16.217,7.004,32.307,13.952,48.222,20.825Zm-.063,203.901c-14.989,6.741-30.033,13.545-45.117,20.259-3.041,1.354-3.117,3.208-2.058,6.034,9.313,24.858,21.268,48.305,36.988,69.751,.919,1.254,2.603,3.075,3.674,2.915,10.461-1.563,20.867-3.492,30.068-5.103-7.831-31.202-15.504-61.776-23.555-93.856Zm307.802-237c10.404-8.169,21.359-16.772,32.543-25.554-13.961-19.203-29.405-35.349-46.761-49.687-.993-.82-2.788-1.433-3.963-1.143-6.588,1.625-13.101,3.557-18.56,5.083,12.246,23.766,24.295,47.149,36.74,71.302Zm-36.74,341.699c1.657,.454,4.478,.749,6.834,1.953,10.21,5.215,17.605,1.674,25.226-5.944,13-12.996,25.862-26.004,37.212-41.879-11.293-8.848-22.228-17.414-32.556-25.506-12.426,24.155-24.428,47.488-36.717,71.376Zm-371.908-45.783c13.983,19.052,29.107,34.983,46.126,49.11,1.278,1.06,3.518,1.938,5.01,1.594,6.46-1.489,12.808-3.463,18.196-4.979-12.215-23.675-24.328-47.151-36.798-71.321-10.493,8.255-21.306,16.762-32.534,25.596Zm69.327-367.232c-1.602-.446-4.399-.744-6.722-1.954-10.547-5.494-18.05-1.354-25.746,6.301-12.911,12.842-25.596,25.776-36.829,41.515,11.349,8.841,22.291,17.365,32.587,25.386,12.548-24.354,24.594-47.733,36.71-71.249Zm140.577,477.071c0-20.375,0-40.341,0-61.246-18.144,1.001-35.699,1.969-53.703,2.962,11.143,28.584,36.418,55.826,53.703,58.284Zm75.951-482.882c-13.691-25.354-26.877-48.556-54.642-59.452,0,21.488,0,41.491,0,62.375,18.084-.967,35.605-1.904,54.642-2.923Zm-54.806,482.857c16.339-.881,42.948-30.025,53.719-58.356-17.978-.935-35.642-1.854-53.719-2.794,0,21.047,0,40.887,0,61.15Zm-21.242-479.966c0-21.17,0-41.227,0-62.352-27.786,11.347-40.979,34.371-54.414,59.464,18.934,1.005,36.549,1.939,54.414,2.888Zm123.218-9.882c-15.142-15.766-30.586-28.468-48.947-37.684,7.399,13.33,14.496,26.265,21.822,39.07,.708,1.237,2.941,2.496,4.285,2.325,7.212-.916,14.367-2.282,22.839-3.711Zm-175.918,476.268c-7.466-13.508-14.673-26.613-21.996-39.653-.501-.892-1.963-1.942-2.829-1.824-7.673,1.048-15.312,2.343-24.081,3.744,15.097,15.822,30.6,28.461,48.907,37.733Zm126.974-.006c18.346-9.384,34.147-21.784,48.823-37.785-8.488-1.368-15.464-2.688-22.5-3.471-1.491-.166-3.913,1.218-4.697,2.582-7.274,12.649-14.282,25.451-21.626,38.674ZM364.699,171.09c-18.611,9.543-34.306,22.035-48.851,37.877,8.414,1.363,15.59,2.684,22.821,3.553,1.315,.158,3.476-1.177,4.192-2.427,7.255-12.66,14.291-25.445,21.838-39.003Zm212.23,29.877c.164-.643,.327-1.285,.491-1.928-11.568-6.368-23.135-12.735-34.703-19.103,5.992,8.117,12.519,15.145,19.223,21.999,.974,.995,2.893,1.782,4.213,1.585,3.638-.544,7.189-1.662,10.775-2.553Zm-262.78-20.031c-.292-.368-.585-.736-.877-1.104-11.544,6.494-23.089,12.987-34.633,19.481l.671,1.736c3.017,.707,6.005,1.657,9.063,2.03,1.805,.22,4.397,.205,5.477-.87,6.945-6.911,13.57-14.145,20.3-21.272Zm-34.988,474.485c-.125,.65-.25,1.299-.376,1.949,11.526,6.329,23.053,12.658,34.579,18.988-6-8.169-12.527-15.224-19.239-22.099-.951-.974-2.897-1.665-4.218-1.454-3.629,.578-7.17,1.706-10.745,2.617Zm262.835,20.025c.22,.362,.439,.723,.659,1.085,11.62-6.457,23.24-12.914,34.86-19.372-.154-.591-.309-1.182-.463-1.773-2.97-.718-5.91-1.654-8.921-2.075-1.843-.257-4.533-.464-5.581,.576-7.04,6.996-13.742,14.332-20.554,21.558Z"/></g></svg>